<?xml version="1.0" standalone="no"?>
<!DOCTYPE svg PUBLIC "-//W3C//DTD SVG 20010904//EN"
 "http://www.w3.org/TR/2001/REC-SVG-20010904/DTD/svg10.dtd">
<svg version="1.0" xmlns="http://www.w3.org/2000/svg"
 width="1024.000000pt" height="1024.000000pt" viewBox="0 0 1024.000000 1024.000000"
 preserveAspectRatio="xMidYMid meet">
<metadata>
Created by potrace 1.11, written by Peter Selinger 2001-2013
</metadata>
<g transform="translate(0.000000,1024.000000) scale(0.100000,-0.100000)"
fill="#000000" stroke="none">
<path d="M0 5120 l0 -5120 5120 0 5120 0 0 5120 0 5120 -5120 0 -5120 0 0
-5120z m5700 4177 c36 -5 99 -18 140 -29 41 -10 83 -21 93 -23 68 -16 208 -81
293 -137 l61 -40 -14 -76 c-23 -122 -2 -171 95 -222 112 -58 146 -105 145
-200 -1 -147 -105 -254 -318 -329 -137 -49 -187 -72 -242 -112 -102 -76 -135
-207 -93 -365 25 -91 41 -109 19 -22 -32 136 -4 264 76 337 54 50 93 69 232
115 226 75 350 187 368 334 15 123 -36 206 -166 269 -105 52 -111 64 -99 212
l5 54 140 -7 c77 -4 149 -8 160 -10 59 -8 123 -17 150 -21 17 -2 41 -7 55 -10
14 -3 36 -8 50 -11 141 -28 290 -121 290 -179 0 -18 14 -31 68 -61 37 -21 83
-46 102 -57 95 -53 243 -168 318 -247 59 -62 102 -142 102 -189 0 -21 6 -34
18 -38 24 -9 140 -100 182 -144 81 -83 103 -116 156 -227 95 -199 82 -456 -34
-689 -15 -30 -15 -36 5 -100 75 -236 42 -463 -91 -639 -75 -100 -181 -182
-321 -248 -33 -15 -69 -33 -80 -38 -58 -32 -205 -105 -231 -115 -117 -46 -251
-65 -322 -44 -44 13 -126 80 -142 116 -8 16 -50 66 -94 111 -115 115 -211 160
-466 222 -104 26 -190 49 -190 53 0 3 15 9 33 12 62 10 277 126 277 150 0 4
-19 -5 -42 -21 -103 -68 -219 -107 -334 -111 -58 -2 -89 4 -177 33 -118 39
-251 100 -337 154 -30 19 -113 94 -185 167 -116 118 -223 210 -280 241 -196
108 -268 129 -435 128 -100 0 -141 -5 -205 -23 -87 -26 -160 -25 -211 3 -16 8
-66 46 -111 83 -49 42 -102 76 -135 88 -74 27 -184 25 -261 -4 -32 -13 -56
-25 -53 -28 3 -3 19 0 35 7 41 17 145 19 206 5 69 -16 122 -45 191 -105 56
-47 126 -89 159 -94 34 -5 17 -15 -128 -76 -84 -35 -165 -69 -181 -76 -15 -8
-64 -23 -108 -35 -43 -12 -77 -24 -74 -26 7 -8 159 35 241 67 38 15 129 51
200 80 204 82 289 103 430 104 134 1 197 -14 329 -80 124 -62 179 -105 326
-254 150 -151 189 -185 275 -236 68 -41 222 -107 325 -139 79 -25 327 -87 395
-99 145 -25 239 -56 333 -107 90 -49 192 -132 180 -145 -6 -6 18 -78 42 -129
27 -56 61 -162 71 -222 16 -101 14 -248 -6 -328 -36 -146 -138 -288 -270 -376
-50 -33 -73 -56 -97 -98 -102 -181 -333 -292 -575 -277 -161 10 -284 46 -448
132 -574 299 -954 292 -1444 -24 -276 -177 -396 -234 -573 -268 -150 -29 -351
-20 -492 21 l-48 15 -87 -81 c-79 -74 -240 -199 -256 -199 -4 0 -19 -8 -33
-18 -34 -23 -164 -78 -222 -93 -58 -16 -240 -21 -282 -8 -18 6 -41 12 -50 14
-46 10 -156 71 -216 119 -73 59 -120 107 -173 176 -18 25 -37 47 -41 48 -5 2
-8 7 -8 12 0 4 -16 32 -35 60 -20 29 -56 95 -82 146 l-46 92 2 109 c2 188 -26
326 -90 432 -138 229 -188 522 -139 817 10 61 65 262 74 271 2 3 38 -29 79
-70 46 -45 97 -85 132 -102 63 -31 72 -46 111 -183 21 -76 26 -113 39 -276 6
-84 20 -89 24 -8 1 37 4 82 5 101 6 73 -28 220 -66 289 -10 18 -18 34 -18 35
0 1 39 1 86 -1 53 -2 91 1 97 7 8 8 -3 11 -39 11 -120 0 -254 63 -372 174 -63
60 -65 64 -55 92 7 19 7 37 2 46 -18 33 -39 176 -38 258 5 255 128 473 348
617 47 31 96 65 108 76 18 16 31 19 68 13 103 -14 157 -69 175 -177 13 -85 42
-189 51 -189 4 0 10 -8 13 -18 9 -26 58 -52 108 -56 30 -3 75 6 151 31 94 31
117 35 169 29 73 -7 131 -32 179 -77 40 -37 99 -129 100 -157 0 -11 2 -12 6
-4 7 18 -39 110 -77 154 -43 50 -103 84 -178 99 -67 14 -83 12 -240 -30 -101
-28 -143 -23 -187 22 -24 24 -34 47 -44 97 -42 215 -53 246 -108 286 -28 21
-52 31 -94 39 -12 2 -23 6 -26 8 -2 2 15 32 37 65 54 81 88 170 101 262 6 41
15 93 21 116 12 49 63 116 121 158 23 17 44 33 47 37 9 12 181 91 186 86 7 -7
-64 -173 -90 -212 -16 -24 -17 -27 -3 -16 9 7 40 54 69 105 28 50 62 107 75
126 13 19 23 40 23 47 0 6 15 38 34 70 106 181 310 286 581 300 104 5 111 4
130 -16 28 -32 25 -113 -5 -176 -13 -27 -52 -84 -86 -126 -87 -107 -114 -158
-113 -205 l1 -39 9 44 c10 51 37 95 105 170 72 79 104 125 125 181 34 91 16
176 -42 200 -39 17 -32 32 22 49 36 12 60 12 134 3 125 -16 168 -33 224 -90
72 -73 122 -192 137 -323 l7 -61 -65 -66 c-81 -84 -115 -131 -133 -183 -17
-47 -18 -59 -7 -59 4 0 8 9 9 21 3 36 50 104 114 165 35 32 75 70 89 84 25 24
26 30 23 100 -6 143 -63 280 -150 368 -24 24 -43 45 -41 46 2 1 19 13 38 27
89 66 228 115 300 106 36 -4 43 0 102 57 110 106 244 169 426 200 77 13 237
14 307 2 17 -3 61 -10 99 -16 38 -6 76 -15 85 -19 9 -5 21 -7 27 -4 6 2 41
-15 77 -37 83 -50 187 -85 295 -100 86 -12 155 -32 180 -53 21 -17 52 -87 52
-118 0 -15 -11 -64 -24 -109 -26 -90 -21 -94 13 -10 24 59 38 153 27 193 -9
39 -55 87 -102 107 -42 18 -73 25 -162 36 -119 14 -333 88 -301 104 30 15 150
42 269 59 140 20 412 25 520 8z m2599 -4002 c407 -58 762 -224 949 -446 69
-81 142 -218 167 -314 48 -186 35 -404 -37 -625 -83 -257 -270 -451 -550 -573
-46 -20 -135 -59 -200 -86 -278 -118 -402 -243 -453 -459 -14 -58 -21 -71 -34
-68 -9 3 -160 40 -335 81 -176 42 -323 78 -326 80 -4 3 1 38 10 79 64 268 147
432 294 578 117 118 177 153 536 319 173 81 247 152 290 280 62 182 0 335
-167 414 -129 62 -290 71 -393 23 -99 -46 -186 -163 -221 -297 -7 -28 -16 -51
-20 -51 -5 0 -169 38 -365 85 -196 47 -358 85 -360 85 -24 0 61 252 130 387
208 407 578 580 1085 508z m-4178 -1880 c42 -3 109 -15 149 -26 229 -63 365
-203 432 -444 22 -77 23 -97 23 -495 0 -398 -1 -418 -23 -495 -99 -356 -369
-508 -843 -474 -343 25 -538 173 -621 474 -22 77 -23 97 -23 495 0 398 1 418
23 495 67 243 203 381 437 446 79 21 247 39 325 33 25 -2 79 -6 121 -9z m1371
-432 l3 -407 315 407 315 406 238 1 c130 0 237 -3 237 -6 0 -3 -131 -172 -291
-376 -159 -203 -293 -376 -296 -384 -3 -7 130 -259 296 -558 166 -299 301
-546 301 -550 0 -3 -107 -5 -237 -4 l-237 3 -210 383 c-116 210 -213 382 -216
381 -3 0 -53 -63 -112 -139 l-108 -139 0 -245 0 -246 -205 0 -205 0 0 940 0
940 205 0 205 0 2 -407z m2253 -544 c209 -50 382 -92 384 -95 4 -4 -176 -773
-188 -805 -5 -13 -63 -2 -411 81 -362 87 -405 99 -403 116 2 21 180 771 188
792 3 7 14 10 27 7 13 -3 194 -46 403 -96z"/>
<path d="M4637 8865 c-54 -19 -129 -51 -167 -71 -68 -37 -196 -141 -186 -152
3 -3 18 7 33 23 33 33 122 94 178 123 38 19 183 77 250 100 21 7 24 11 10 11
-11 0 -64 -15 -118 -34z"/>
<path d="M5388 8663 c-17 -40 -14 -112 5 -153 9 -19 23 -84 31 -144 21 -160
22 -159 -148 -289 -21 -16 -35 -32 -32 -35 4 -3 16 4 29 15 12 11 52 41 90 67
37 26 75 61 84 79 17 33 20 113 7 190 -3 20 -4 37 -1 37 7 0 169 -97 187 -112
51 -43 66 -110 44 -194 -18 -69 -13 -80 11 -22 61 148 27 225 -140 324 -52 30
-107 68 -124 84 -34 35 -47 91 -33 144 12 43 6 47 -10 9z"/>
<path d="M3940 8533 c0 -22 40 -99 67 -129 117 -131 322 -144 521 -33 168 94
294 139 358 126 13 -2 27 0 30 4 11 19 -133 14 -206 -7 -30 -8 -105 -40 -167
-70 -135 -66 -192 -84 -275 -86 -133 -3 -233 48 -295 152 -18 30 -33 49 -33
43z"/>
<path d="M6852 8423 c1 -5 -4 -33 -10 -63 -47 -215 21 -302 338 -435 124 -52
148 -65 171 -93 32 -37 74 -171 99 -307 l19 -110 -1 69 c-2 76 -10 130 -39
257 -23 98 -59 151 -118 177 l-36 15 35 8 c56 12 330 4 380 -11 85 -26 130
-66 181 -160 22 -41 28 -48 24 -25 -15 73 -74 164 -130 201 -70 46 -286 55
-438 19 l-77 -19 -58 24 c-176 72 -273 131 -313 189 -21 30 -24 46 -24 120 0
47 3 101 7 119 5 19 4 32 -2 32 -6 0 -9 -3 -8 -7z"/>
<path d="M2931 8194 c0 -11 3 -14 6 -6 3 7 2 16 -1 19 -3 4 -6 -2 -5 -13z"/>
<path d="M2950 8175 c0 -5 5 -17 10 -25 5 -8 10 -10 10 -5 0 6 -5 17 -10 25
-5 8 -10 11 -10 5z"/>
<path d="M3426 8045 c8 -37 14 -45 14 -19 0 10 -5 26 -10 34 -8 11 -9 7 -4
-15z"/>
<path d="M6626 7955 c-72 -152 -61 -343 28 -472 62 -90 69 -111 64 -183 -6
-79 -49 -176 -103 -232 -20 -21 -32 -38 -27 -38 5 0 37 29 70 64 72 78 102
147 102 239 0 57 -22 118 -50 137 -18 12 -69 121 -85 182 -21 81 -17 231 9
292 21 50 14 58 -8 11z"/>
<path d="M2891 7864 c-27 -45 -37 -52 -114 -82 -76 -30 -89 -32 -125 -23 -22
6 -66 13 -97 16 -66 5 -117 -15 -157 -63 -24 -28 -183 -332 -174 -332 2 0 39
57 82 128 121 198 152 230 224 227 48 -3 123 -16 139 -24 43 -24 170 -29 260
-11 58 12 361 155 361 171 0 5 -30 -6 -67 -25 -154 -78 -283 -116 -390 -116
-40 0 -73 3 -73 8 0 4 15 13 33 21 55 24 85 50 111 98 35 62 25 68 -13 7z"/>
<path d="M3570 7821 c0 -6 4 -13 10 -16 6 -3 7 1 4 9 -7 18 -14 21 -14 7z"/>
<path d="M4000 7800 c-36 -5 -90 -13 -120 -19 -30 -6 -79 -14 -108 -17 -29 -4
-55 -11 -58 -15 -5 -9 11 -7 116 12 122 22 192 27 345 27 88 0 189 -4 225 -9
36 -5 83 -12 105 -15 70 -10 262 -62 352 -94 80 -30 279 -122 328 -153 122
-76 166 -107 246 -169 260 -203 343 -253 479 -288 74 -19 245 -25 283 -10 14
5 -6 6 -51 3 -40 -2 -96 1 -125 7 -29 5 -62 12 -73 14 -46 9 -181 69 -234 104
-59 39 -189 139 -205 158 -23 27 -238 182 -309 223 -42 24 -118 61 -169 82
-50 22 -101 44 -112 48 -89 39 -308 91 -465 110 -93 11 -362 11 -450 1z"/>
<path d="M3600 7793 c0 -6 17 -19 38 -28 20 -10 40 -19 44 -21 4 -3 10 0 13 6
4 6 3 9 -2 8 -14 -3 -57 13 -75 30 -10 8 -18 10 -18 5z"/>
<path d="M7024 7708 c-56 -72 -74 -130 -74 -240 0 -163 -70 -285 -230 -403
-123 -89 -349 -184 -503 -211 -84 -15 -137 -29 -137 -37 0 -4 25 0 186 28 176
30 330 93 479 196 172 119 231 232 234 452 2 123 6 136 61 217 23 33 39 60 36
60 -3 0 -26 -28 -52 -62z"/>
<path d="M5519 7390 l-24 -19 52 -1 c34 0 102 -17 205 -51 126 -42 167 -51
230 -52 55 -2 81 2 90 12 11 11 11 13 -1 6 -42 -24 -198 7 -326 66 -138 63
-188 71 -226 39z"/>
<path d="M3181 7118 c24 -19 54 -55 68 -83 26 -49 26 -53 27 -280 0 -239 6
-275 50 -343 15 -23 14 -26 -11 -52 -27 -28 -99 -54 -119 -43 -6 3 -5 0 2 -8
16 -17 111 1 148 29 25 18 27 18 72 -5 88 -43 193 -36 345 23 123 47 182 63
248 66 73 2 113 -8 188 -49 77 -42 240 -163 241 -180 0 -22 -85 -46 -142 -40
-43 5 -49 4 -33 -6 34 -20 137 -14 179 11 l37 22 32 -24 c109 -82 244 -108
427 -82 58 8 148 13 200 12 113 -2 160 -20 235 -90 28 -26 74 -65 103 -88 l53
-41 -33 -19 c-42 -26 -77 -58 -90 -83 -7 -13 1 -10 23 11 45 42 90 64 132 64
48 0 147 21 147 31 0 5 6 9 13 9 6 0 26 8 42 17 22 12 55 17 120 17 76 1 98
-3 139 -23 71 -36 140 -106 173 -176 24 -52 27 -71 27 -150 -1 -64 -7 -105
-22 -142 -11 -29 -16 -51 -12 -48 5 3 17 29 27 58 22 64 24 203 4 267 -29 91
-107 176 -200 221 -66 32 -186 33 -259 1 -29 -13 -57 -20 -62 -17 -6 3 -10 54
-11 113 -1 128 -15 102 -26 -45 l-6 -93 -37 0 c-44 0 -102 36 -185 114 -84 79
-121 103 -190 121 -73 19 -131 19 -260 0 -171 -25 -246 -20 -351 25 l-45 20
15 29 c22 41 68 77 153 118 41 19 72 37 70 39 -2 2 -41 -11 -88 -29 -66 -25
-96 -43 -137 -84 l-52 -52 -84 63 c-184 141 -253 182 -339 206 -68 18 -186 8
-269 -24 -61 -23 -73 -25 -118 -15 -40 9 -51 15 -56 35 -8 30 12 64 99 172 37
45 67 86 67 90 -1 4 -10 -4 -21 -18 -12 -14 -51 -58 -88 -98 -36 -41 -71 -83
-78 -95 -20 -36 -15 -76 12 -103 14 -14 25 -26 25 -28 0 -5 -119 -28 -155 -31
-57 -4 -128 24 -171 69 -62 65 -75 123 -74 347 1 205 -8 255 -60 327 -16 23
-43 48 -59 57 -47 24 -46 18 0 -17z"/>
<path d="M7806 7005 c-23 -118 -80 -306 -104 -341 -10 -16 -221 -168 -262
-189 -47 -25 -109 -35 -138 -24 -36 14 -39 3 -3 -15 68 -36 147 -15 259 68 35
26 66 46 68 44 9 -10 -161 -168 -180 -168 -5 0 -20 -9 -35 -20 -15 -10 -59
-29 -97 -41 -89 -29 -100 -39 -25 -23 88 18 148 42 221 90 139 91 223 201 263
344 22 79 49 253 45 287 -4 26 -5 25 -12 -12z"/>
<path d="M2037 6963 c-9 -10 -35 -27 -59 -39 -121 -58 -142 -70 -163 -98 -31
-42 -45 -98 -44 -181 0 -60 13 -160 19 -145 2 7 7 51 15 140 10 117 42 176
117 219 80 45 94 56 117 83 25 32 24 49 -2 21z"/>
<path d="M2761 6900 c0 -8 4 -24 9 -35 5 -13 9 -14 9 -5 0 8 -4 24 -9 35 -5
13 -9 14 -9 5z"/>
<path d="M6050 6799 c0 -5 5 -7 10 -4 6 3 10 8 10 11 0 2 -4 4 -10 4 -5 0 -10
-5 -10 -11z"/>
<path d="M2125 6450 c4 -14 8 -79 10 -145 3 -94 0 -137 -15 -200 -25 -103 -25
-155 0 -208 29 -59 61 -92 214 -216 40 -33 2 16 -78 100 -119 125 -131 168
-94 316 13 54 55 76 131 70 78 -6 122 9 163 57 59 68 60 85 2 23 l-55 -58 -94
3 c-52 1 -103 -1 -114 -5 -19 -6 -20 -2 -22 53 -1 61 -28 193 -45 220 -7 11
-7 8 -3 -10z"/>
<path d="M3267 5879 c-62 -55 -124 -152 -161 -252 -13 -34 -28 -62 -32 -62 -5
0 -54 9 -109 20 -72 13 -145 19 -260 19 -168 0 -214 -6 -388 -58 -49 -14 -109
-28 -133 -30 -25 -2 -49 -7 -52 -11 -11 -12 127 4 208 24 143 36 176 40 345
36 171 -3 202 -6 285 -25 25 -5 55 -11 67 -13 33 -5 34 -8 18 -67 -23 -84 -54
-276 -58 -358 -5 -102 9 -188 39 -246 15 -28 30 -70 34 -95 l8 -46 1 38 c0 22
-11 68 -26 105 -25 59 -28 79 -28 177 1 149 41 353 110 562 54 163 141 300
205 326 13 5 13 6 -1 6 -8 1 -41 -22 -72 -50z"/>
<path d="M4520 5886 c0 -3 24 -12 54 -20 64 -19 130 -80 147 -136 10 -32 9
-44 -7 -76 -16 -32 -33 -46 -98 -78 -52 -26 -94 -40 -127 -41 -55 -3 -127 12
-150 31 -8 8 -19 14 -24 14 -4 0 -14 8 -21 18 -7 9 -14 12 -14 6 0 -17 64 -63
111 -79 84 -30 171 -17 314 46 111 49 148 32 311 -142 60 -65 110 -84 186 -74
100 14 120 10 154 -29 18 -20 36 -53 42 -74 18 -64 105 -313 108 -309 8 8 -90
345 -111 384 l-23 41 27 26 c81 77 242 102 343 51 42 -21 48 -11 6 11 -113 59
-256 48 -368 -30 -43 -30 -49 -31 -151 -31 -124 0 -141 8 -224 107 -76 90
-136 131 -196 132 l-49 1 0 42 c0 72 -35 125 -120 178 -33 21 -120 43 -120 31z"/>
<path d="M3640 5516 c-113 -30 -183 -110 -228 -260 -11 -36 -19 -66 -17 -66 2
0 24 42 49 94 55 113 110 168 195 193 126 38 217 10 336 -102 39 -35 88 -73
109 -83 40 -19 160 -30 169 -15 3 4 -17 9 -44 9 -78 2 -131 28 -195 97 -107
115 -169 148 -275 146 -30 0 -74 -6 -99 -13z"/>
<path d="M1850 5149 c140 -57 224 -128 273 -232 47 -101 56 -267 21 -372 -13
-36 -12 -38 1 -20 30 38 47 119 51 233 3 98 7 118 28 155 40 68 119 105 223
105 32 0 65 -4 73 -8 8 -4 35 -11 60 -14 l45 -6 -65 32 c-85 41 -188 45 -263
9 -51 -25 -94 -69 -103 -107 -9 -34 -16 -30 -42 25 -48 101 -173 191 -282 204
-37 5 -40 4 -20 -4z"/>
<path d="M3835 3047 c-99 -33 -147 -81 -182 -180 -16 -46 -18 -91 -18 -417 0
-326 2 -371 18 -417 28 -79 68 -127 134 -159 54 -27 66 -29 183 -29 117 0 129
2 183 29 66 32 106 80 134 159 16 46 18 91 18 417 0 326 -2 371 -18 417 -28
80 -68 127 -134 159 -52 26 -70 29 -168 31 -70 2 -124 -2 -150 -10z"/>
</g>
</svg>
